<svg width="63" height="63" viewBox="0 0 63 63" fill="none" xmlns="http://www.w3.org/2000/svg">
<path d="M31.319 14.7265C32.5133 14.4394 33.8881 14.4909 35.1549 14.7661C35.2398 14.7833 35.3279 14.771 35.4049 14.7314C35.4818 14.6917 35.5429 14.627 35.5781 14.5479C35.6534 14.387 35.7424 14.2329 35.8442 14.0873C35.8866 14.0267 35.9104 13.9551 35.9128 13.8812C35.9151 13.8073 35.8959 13.7343 35.8574 13.6711C35.0561 12.352 33.9332 11.2949 32.8627 10.8809C32.7876 10.853 32.7056 10.8495 32.6285 10.871C32.5513 10.8924 32.4828 10.9378 32.433 11.0005C31.6548 11.9528 31.1167 13.078 30.864 14.2815C30.851 14.3436 30.8539 14.4079 30.8724 14.4686C30.8909 14.5292 30.9243 14.5843 30.9697 14.6286C31.015 14.6729 31.0708 14.7051 31.1318 14.7223C31.1929 14.7394 31.2573 14.7408 31.319 14.7265Z" fill="#F76C82"/>
<path d="M32.5858 20.0799C33.2275 19.0313 34.237 18.0943 35.33 17.3938C35.401 17.3471 35.4539 17.2775 35.4799 17.1966C35.5059 17.1157 35.5034 17.0284 35.4729 16.9491C35.4108 16.7794 35.3639 16.6047 35.3325 16.4268C35.3206 16.3551 35.2881 16.2885 35.239 16.235C35.1898 16.1815 35.1262 16.1434 35.0559 16.1254C33.5555 15.7583 32.0092 15.8049 30.9579 16.2684C30.8851 16.3015 30.8246 16.3569 30.7851 16.4265C30.7456 16.4961 30.7291 16.5764 30.738 16.6559C30.8607 17.8796 31.2757 19.0559 31.9481 20.0857C31.9827 20.139 32.0302 20.1827 32.0862 20.2128C32.1423 20.2429 32.205 20.2583 32.2685 20.2578C32.3321 20.2572 32.3945 20.2406 32.45 20.2095C32.5054 20.1784 32.5522 20.1338 32.5858 20.0799Z" fill="#F76C82"/>
<path d="M39.1953 23.551C40.419 23.4279 41.5953 23.0126 42.6251 22.3402C42.6784 22.3055 42.7221 22.258 42.7522 22.202C42.7822 22.1459 42.7977 22.0833 42.7971 22.0197C42.7965 21.9561 42.7799 21.8937 42.7488 21.8383C42.7177 21.7828 42.6731 21.7361 42.6192 21.7025C41.5699 21.0606 40.6333 20.0503 39.932 18.958C39.8853 18.887 39.8157 18.8341 39.7348 18.8081C39.6538 18.7821 39.5664 18.7846 39.4871 18.8152C39.3175 18.8772 39.1428 18.9241 38.965 18.9555C38.8933 18.9674 38.8266 19 38.7731 19.0491C38.7196 19.0983 38.6815 19.162 38.6635 19.2324C38.2974 20.7336 38.3441 22.279 38.8075 23.331C38.8407 23.4039 38.896 23.4645 38.9657 23.504C39.0354 23.5435 39.1157 23.5599 39.1953 23.551Z" fill="#F76C82"/>
<path d="M45.5089 17.0227C44.9407 17.155 44.3588 17.2199 43.7754 17.2161C43.0684 17.2135 42.3636 17.1351 41.6732 16.9822C41.5884 16.9648 41.5002 16.977 41.4231 17.0166C41.3461 17.0562 41.2849 17.1209 41.2497 17.2C41.1744 17.3613 41.0852 17.5157 40.9833 17.6617C40.9408 17.7222 40.9169 17.7939 40.9146 17.8678C40.9122 17.9418 40.9314 18.0148 40.9699 18.078C41.7712 19.3968 42.8948 20.4537 43.9643 20.8687C44.0394 20.8967 44.1215 20.9003 44.1988 20.8788C44.276 20.8574 44.3445 20.812 44.3944 20.7493C45.173 19.7969 45.7114 18.6715 45.9643 17.4677C45.9772 17.4056 45.9743 17.3412 45.9558 17.2805C45.9373 17.2199 45.9039 17.1648 45.8585 17.1205C45.8131 17.0761 45.7573 17.0439 45.6962 17.0269C45.6351 17.0098 45.5707 17.0084 45.5089 17.0227Z" fill="#F76C82"/>
<path d="M41.498 14.3571C41.4271 14.4039 41.3743 14.4735 41.3483 14.5544C41.3224 14.6353 41.3249 14.7226 41.3555 14.8019C41.4175 14.9712 41.4645 15.1456 41.4958 15.3231C41.5077 15.3948 41.5403 15.4614 41.5894 15.5149C41.6386 15.5685 41.7022 15.6065 41.7726 15.6245C43.2731 15.9908 44.8194 15.9449 45.8707 15.4806C45.9435 15.4474 46.0039 15.3921 46.0433 15.3225C46.0828 15.2529 46.0993 15.1726 46.0904 15.0931C45.9675 13.8697 45.5525 12.6938 44.8802 11.6643C44.8456 11.611 44.7981 11.5672 44.7421 11.5372C44.6861 11.5071 44.6234 11.4916 44.5598 11.4922C44.4963 11.4928 44.4339 11.5094 44.3784 11.5404C44.323 11.5715 44.2762 11.6161 44.2426 11.67C43.6006 12.7185 42.5903 13.6551 41.498 14.3571Z" fill="#F76C82"/>
<path d="M34.2097 10.0465C35.2581 10.6876 36.1945 11.6972 36.8956 12.7902C36.9422 12.8611 37.0117 12.914 37.0925 12.94C37.1733 12.9661 37.2606 12.9638 37.3399 12.9334C37.5094 12.8719 37.6838 12.8251 37.8614 12.7937C37.933 12.7817 37.9996 12.7492 38.053 12.7001C38.1065 12.651 38.1445 12.5874 38.1625 12.5171C38.5299 11.0156 38.4842 9.46973 38.0197 8.41844C37.9866 8.34566 37.9312 8.28523 37.8616 8.24578C37.7921 8.20633 37.7118 8.18987 37.6323 8.19876C36.409 8.32162 35.2332 8.73656 34.2038 9.40866C34.1505 9.44331 34.1067 9.49084 34.0767 9.54687C34.0466 9.6029 34.0311 9.66561 34.0317 9.72919C34.0323 9.79278 34.0489 9.85519 34.08 9.91065C34.1112 9.96611 34.1557 10.0128 34.2097 10.0465Z" fill="#F76C82"/>
<path d="M39.7392 13.0382C39.9005 13.1135 40.055 13.2025 40.201 13.3042C40.2616 13.3465 40.3331 13.3702 40.4069 13.3725C40.4807 13.3748 40.5536 13.3556 40.6167 13.3172C41.9349 12.5168 42.9937 11.3933 43.4081 10.3237C43.4361 10.2485 43.4396 10.1665 43.4181 10.0892C43.3966 10.012 43.3512 9.94355 43.2884 9.89367C42.3359 9.11567 41.2107 8.5774 40.0072 8.32402C39.9451 8.31105 39.8807 8.31393 39.82 8.33239C39.7593 8.35085 39.7042 8.38431 39.6599 8.42967C39.6155 8.47502 39.5833 8.53082 39.5662 8.59192C39.5491 8.65301 39.5477 8.71743 39.562 8.77923C39.8496 9.97342 39.7979 11.3479 39.5212 12.6145C39.5038 12.6994 39.516 12.7877 39.5557 12.8647C39.5953 12.9418 39.6601 13.003 39.7392 13.0382Z" fill="#F76C82"/>
<path d="M37.0882 18.7099C36.9273 18.6346 36.7733 18.5455 36.6277 18.4438C36.5671 18.4014 36.4955 18.3775 36.4215 18.3752C36.3476 18.3728 36.2746 18.3921 36.2115 18.4305C34.8924 19.2319 33.8344 20.3556 33.4202 21.4253C33.3922 21.5004 33.3887 21.5824 33.4101 21.6596C33.4316 21.7368 33.4769 21.8052 33.5396 21.8551C34.4916 22.6335 35.6167 23.1717 36.8201 23.4247C36.8822 23.4377 36.9466 23.4348 37.0073 23.4163C37.068 23.3978 37.123 23.3644 37.1674 23.319C37.2118 23.2737 37.244 23.2179 37.2611 23.1568C37.2782 23.0957 37.2796 23.0313 37.2653 22.9695C36.9776 21.7746 37.0292 20.4005 37.3061 19.1329C37.3234 19.0481 37.3112 18.96 37.2716 18.8831C37.232 18.8061 37.1673 18.745 37.0882 18.7099Z" fill="#F76C82"/>
<path d="M44.6047 37.6074H33.1335C32.9882 37.6074 32.8443 37.636 32.7101 37.6917C32.5758 37.7473 32.4538 37.8288 32.3511 37.9315C32.2483 38.0343 32.1668 38.1563 32.1112 38.2905C32.0556 38.4248 32.0269 38.5687 32.0269 38.714V49.7391C32.0269 49.8844 32.0556 50.0283 32.1112 50.1626C32.1668 50.2968 32.2483 50.4188 32.3511 50.5216C32.4538 50.6243 32.5758 50.7058 32.7101 50.7614C32.8443 50.817 32.9882 50.8457 33.1335 50.8457H44.6047C44.75 50.8457 44.8939 50.817 45.0281 50.7614C45.1624 50.7058 45.2844 50.6243 45.3871 50.5216C45.4899 50.4188 45.5714 50.2968 45.627 50.1626C45.6826 50.0283 45.7113 49.8844 45.7113 49.7391V38.714C45.7113 38.5687 45.6826 38.4248 45.627 38.2905C45.5714 38.1563 45.4899 38.0343 45.3871 37.9315C45.2844 37.8288 45.1624 37.7473 45.0281 37.6917C44.8939 37.636 44.75 37.6074 44.6047 37.6074ZM42.1315 47.6467H35.6067C35.4925 47.6467 35.3829 47.6013 35.3022 47.5205C35.2214 47.4398 35.176 47.3302 35.176 47.216C35.176 47.1018 35.2214 46.9922 35.3022 46.9115C35.3829 46.8307 35.4925 46.7853 35.6067 46.7853H42.1315C42.2458 46.7853 42.3553 46.8307 42.4361 46.9115C42.5168 46.9922 42.5622 47.1018 42.5622 47.216C42.5622 47.3302 42.5168 47.4398 42.4361 47.5205C42.3553 47.6013 42.2458 47.6467 42.1315 47.6467Z" fill="#F76C82"/>
<path d="M17.5414 11.9441C17.5313 11.8752 17.5189 11.8072 17.5042 11.74C17.4748 11.6064 17.4006 11.4869 17.294 11.4013C17.1873 11.3156 17.0545 11.269 16.9178 11.2692H14.5809C14.4806 11.2706 14.3829 11.2375 14.3041 11.1754C14.2253 11.1134 14.1702 11.0261 14.148 10.9283C14.1348 10.8655 14.1357 10.8005 14.1507 10.7381C14.1657 10.6757 14.1944 10.6175 14.2348 10.5676C14.2752 10.5178 14.3263 10.4775 14.3842 10.4499C14.4421 10.4223 14.5055 10.4079 14.5696 10.4079H16.8567C16.371 9.82061 15.6867 9.43197 14.9335 9.31562L9.38598 8.45918C9.23457 8.43596 9.0798 8.44901 8.93442 8.49727C8.78903 8.54552 8.65718 8.6276 8.5497 8.73675C8.15663 9.1358 7.88736 9.35642 7.5035 9.49977C7.28229 9.5788 7.09062 9.72376 6.95436 9.91512C6.81809 10.1065 6.74378 10.335 6.74144 10.5699V11.8942C6.74144 12.3846 6.93623 12.8548 7.28295 13.2015C7.62967 13.5483 8.09993 13.7431 8.59027 13.7431H15.7424C16.2195 13.7431 16.6771 13.5535 17.0145 13.2161C17.3518 12.8788 17.5414 12.4212 17.5414 11.9441Z" fill="#D4E1E8"/>
<path d="M59.2004 1.53809H5.67794C4.58036 1.53932 3.52809 1.97588 2.75199 2.75199C1.97588 3.52809 1.53932 4.58036 1.53809 5.67794V59.829C1.53858 60.262 1.71078 60.677 2.0169 60.9831C2.32302 61.2892 2.73807 61.4614 3.17098 61.4619H7.66532C7.9804 61.4617 8.28871 61.3704 8.55312 61.199C8.81754 61.0277 9.02679 60.7836 9.1557 60.496L10.0739 58.4444C10.1348 58.3086 10.2337 58.1933 10.3586 58.1123C10.4836 58.0314 10.6293 57.9882 10.7781 57.9881H46.9041C47.0529 57.9882 47.1986 58.0314 47.3236 58.1123C47.4485 58.1933 47.5474 58.3086 47.6083 58.4445L48.5265 60.496C48.6554 60.7836 48.8646 61.0277 49.1291 61.199C49.3935 61.3704 49.7018 61.4617 50.0169 61.4619H59.2004C59.8 61.4612 60.3748 61.2228 60.7988 60.7988C61.2228 60.3748 61.4612 59.8 61.4619 59.2004V3.79955C61.4612 3.19998 61.2228 2.62517 60.7988 2.20121C60.3748 1.77725 59.8 1.53877 59.2004 1.53809ZM60.6006 59.2004C60.6002 59.5717 60.4525 59.9275 60.19 60.19C59.9275 60.4525 59.5717 60.6002 59.2004 60.6006H56.1441V4.33139C56.1441 4.21718 56.0987 4.10763 56.018 4.02687C55.9372 3.9461 55.8277 3.90073 55.7134 3.90073C55.5992 3.90073 55.4897 3.9461 55.4089 4.02687C55.3281 4.10763 55.2828 4.21718 55.2828 4.33139V60.6006H50.0169C49.868 60.6005 49.7223 60.5573 49.5974 60.4764C49.4724 60.3954 49.3735 60.2801 49.3126 60.1442L48.3944 58.0927C48.3785 58.057 48.3612 58.0222 48.343 57.9881H51.0568C51.171 57.9881 51.2805 57.9427 51.3613 57.862C51.4421 57.7812 51.4874 57.6717 51.4874 57.5575C51.4874 57.4432 51.4421 57.3337 51.3613 57.2529C51.2805 57.1722 51.171 57.1268 51.0568 57.1268H6.62543C6.51121 57.1268 6.40167 57.1722 6.3209 57.2529C6.24014 57.3337 6.19476 57.4432 6.19476 57.5575C6.19476 57.6717 6.24014 57.7812 6.3209 57.862C6.40167 57.9427 6.51121 57.9881 6.62543 57.9881H9.33918C9.32092 58.0222 9.30378 58.057 9.28775 58.0926L8.36959 60.1442C8.30865 60.2801 8.20976 60.3954 8.08482 60.4764C7.95987 60.5573 7.8142 60.6005 7.66532 60.6006H3.17098C2.96642 60.6004 2.7703 60.519 2.62565 60.3744C2.481 60.2297 2.39964 60.0336 2.39941 59.829V5.67794C2.40041 4.80873 2.74614 3.9754 3.36077 3.36077C3.9754 2.74614 4.80873 2.40041 5.67794 2.39941H59.2004C59.5717 2.39983 59.9275 2.54748 60.19 2.80997C60.4525 3.07245 60.6002 3.42834 60.6006 3.79955V59.2004Z" fill="#424852"/>
<path d="M38.4141 13.5369C37.9517 13.5369 37.4997 13.674 37.1153 13.9308C36.7308 14.1877 36.4312 14.5528 36.2542 14.98C36.0773 15.4072 36.031 15.8772 36.1212 16.3307C36.2114 16.7842 36.4341 17.2007 36.761 17.5277C37.0879 17.8546 37.5045 18.0773 37.958 18.1675C38.4115 18.2577 38.8815 18.2114 39.3087 18.0344C39.7359 17.8575 40.101 17.5579 40.3578 17.1734C40.6147 16.789 40.7518 16.337 40.7518 15.8746C40.7511 15.2548 40.5046 14.6606 40.0663 14.2223C39.6281 13.7841 39.0339 13.5376 38.4141 13.5369ZM38.4141 14.3982C38.6241 14.3983 38.8316 14.4434 39.0228 14.5303C39.2139 14.6173 39.3843 14.7442 39.5223 14.9024C39.4465 14.8781 39.3682 14.862 39.2889 14.8544C39.1497 14.8412 39.0095 14.8431 38.8707 14.86C38.4675 14.9116 38.0912 15.0901 37.7961 15.3697C37.5011 15.6493 37.3027 16.0155 37.2295 16.4153C37.2277 16.4253 37.226 16.4352 37.2243 16.4452C37.2091 16.5406 37.2062 16.6376 37.2157 16.7337C37.057 16.5134 36.9622 16.2535 36.9418 15.9828C36.9214 15.712 36.9762 15.4408 37.1002 15.1992C37.2241 14.9576 37.4124 14.755 37.6443 14.6136C37.8761 14.4723 38.1425 14.3977 38.4141 14.3982Z" fill="#424852"/>
<path d="M48.9832 10.7191C49.3889 10.7191 49.7177 10.3902 49.7177 9.98459C49.7177 9.57895 49.3889 9.25012 48.9832 9.25012C48.5776 9.25012 48.2488 9.57895 48.2488 9.98459C48.2488 10.3902 48.5776 10.7191 48.9832 10.7191Z" fill="#424852"/>
<path d="M27.8451 10.7191C28.2508 10.7191 28.5796 10.3902 28.5796 9.98459C28.5796 9.57895 28.2508 9.25012 27.8451 9.25012C27.4395 9.25012 27.1107 9.57895 27.1107 9.98459C27.1107 10.3902 27.4395 10.7191 27.8451 10.7191Z" fill="#424852"/>
<path d="M48.9832 50.2759C49.3889 50.2759 49.7177 49.9471 49.7177 49.5415C49.7177 49.1358 49.3889 48.807 48.9832 48.807C48.5776 48.807 48.2488 49.1358 48.2488 49.5415C48.2488 49.9471 48.5776 50.2759 48.9832 50.2759Z" fill="#424852"/>
<path d="M27.8451 50.2759C28.2508 50.2759 28.5796 49.9471 28.5796 49.5415C28.5796 49.1358 28.2508 48.807 27.8451 48.807C27.4395 48.807 27.1107 49.1358 27.1107 49.5415C27.1107 49.9471 27.4395 50.2759 27.8451 50.2759Z" fill="#424852"/>
<path d="M21.9019 16.424C21.9015 16.0871 21.7675 15.7641 21.5292 15.5259C21.291 15.2877 20.968 15.1537 20.6311 15.1533H8.50814C8.17126 15.1537 7.84829 15.2877 7.61009 15.5259C7.37188 15.7641 7.2379 16.0871 7.23753 16.424V18.6905C7.2379 19.0274 7.37188 19.3503 7.61009 19.5886C7.84829 19.8268 8.17126 19.9608 8.50814 19.9611H20.6311C20.968 19.9608 21.291 19.8268 21.5292 19.5886C21.7675 19.3504 21.9015 19.0274 21.9019 18.6905L21.9019 16.424ZM8.09886 18.6905V16.424C8.09898 16.3154 8.14214 16.2114 8.21887 16.1347C8.29559 16.0579 8.39962 16.0148 8.50814 16.0146H11.3777C10.912 16.289 10.5259 16.6801 10.2578 17.1495C9.98965 17.6188 9.84869 18.15 9.84886 18.6905C9.84876 18.8338 9.88555 18.9748 9.95568 19.0998H8.50814C8.39962 19.0997 8.29559 19.0565 8.21887 18.9798C8.14214 18.903 8.09898 18.799 8.09886 18.6905Z" fill="#424852"/>
<path d="M21.9019 24.5612C21.9015 24.2243 21.7675 23.9013 21.5292 23.6631C21.291 23.4249 20.968 23.2909 20.6311 23.2905H8.50814C8.17126 23.2909 7.84829 23.4249 7.61009 23.6631C7.37188 23.9013 7.2379 24.2243 7.23753 24.5612V26.8277C7.2379 27.1646 7.37188 27.4876 7.61008 27.7258C7.84829 27.964 8.17126 28.098 8.50814 28.0984H20.6311C20.968 28.098 21.291 27.964 21.5292 27.7258C21.7675 27.4876 21.9015 27.1646 21.9019 26.8277L21.9019 24.5612ZM8.09886 26.8277V24.5612C8.09898 24.4526 8.14214 24.3486 8.21887 24.2719C8.29559 24.1951 8.39962 24.152 8.50814 24.1519H11.3777C10.912 24.4262 10.5259 24.8174 10.2578 25.2867C9.98965 25.756 9.84869 26.2872 9.84886 26.8277C9.84876 26.9711 9.88555 27.112 9.95568 27.237H8.50814C8.39962 27.2369 8.29559 27.1937 8.21886 27.117C8.14214 27.0403 8.09898 26.9362 8.09886 26.8277Z" fill="#424852"/>
<path d="M21.9019 32.6985C21.9015 32.3616 21.7675 32.0387 21.5292 31.8004C21.291 31.5622 20.968 31.4282 20.6311 31.4279H8.50814C8.17126 31.4282 7.84829 31.5622 7.61008 31.8004C7.37188 32.0387 7.2379 32.3616 7.23753 32.6985V34.9651C7.2379 35.3019 7.37188 35.6249 7.61009 35.8631C7.84829 36.1013 8.17126 36.2353 8.50814 36.2357H20.6311C20.968 36.2353 21.291 36.1013 21.5292 35.8631C21.7675 35.6249 21.9015 35.302 21.9019 34.9651L21.9019 32.6985ZM8.09886 34.9651V32.6985C8.09898 32.59 8.14214 32.486 8.21886 32.4092C8.29559 32.3325 8.39962 32.2893 8.50814 32.2892H11.3777C10.912 32.5635 10.526 32.9547 10.2578 33.424C9.98966 33.8933 9.84869 34.4245 9.84885 34.965C9.84876 35.1084 9.88555 35.2493 9.95568 35.3744H8.50814C8.39962 35.3742 8.29559 35.3311 8.21887 35.2543C8.14214 35.1776 8.09898 35.0736 8.09886 34.9651Z" fill="#424852"/>
<path d="M21.9019 43.1022V40.8357C21.9015 40.4988 21.7675 40.1758 21.5292 39.9376C21.291 39.6994 20.968 39.5654 20.6311 39.5651H8.50814C8.17126 39.5654 7.84829 39.6994 7.61009 39.9376C7.37188 40.1758 7.2379 40.4988 7.23753 40.8357V43.1022C7.2379 43.4391 7.37188 43.7621 7.61009 44.0003C7.84829 44.2385 8.17126 44.3725 8.50814 44.3729H20.6311C20.968 44.3725 21.291 44.2385 21.5292 44.0003C21.7675 43.7621 21.9015 43.4391 21.9019 43.1022ZM8.09886 43.1022V40.8357C8.09898 40.7272 8.14214 40.6231 8.21887 40.5464C8.29559 40.4697 8.39962 40.4265 8.50814 40.4264H11.3777C10.912 40.7007 10.5259 41.0919 10.2578 41.5612C9.98965 42.0305 9.84869 42.5617 9.84885 43.1022C9.84876 43.2456 9.88555 43.3865 9.95568 43.5115H8.50814C8.39962 43.5114 8.29559 43.4683 8.21887 43.3915C8.14214 43.3148 8.09898 43.2108 8.09886 43.1022Z" fill="#424852"/>
<path d="M52.1078 7.79657C51.7079 7.69366 51.3429 7.48536 51.051 7.19337C50.759 6.90139 50.5507 6.53642 50.4478 6.13651C50.3702 5.84541 50.1981 5.58834 49.9585 5.40579C49.7188 5.22323 49.4253 5.12554 49.1241 5.12811H25.0041C24.6616 5.12849 24.3332 5.26473 24.0909 5.50694C23.8487 5.74915 23.7125 6.07756 23.7121 6.4201V53.5368H8.55812C8.44822 53.5383 8.34086 53.5037 8.25246 53.4384C8.16406 53.3731 8.09947 53.2806 8.06858 53.1751C7.92725 52.626 7.64119 52.1248 7.24024 51.7239C6.83928 51.3229 6.33811 51.0369 5.78897 50.8955C5.6835 50.8646 5.59105 50.8 5.52574 50.7116C5.46043 50.6232 5.42585 50.5159 5.42728 50.406V9.12031C5.42585 9.01041 5.46043 8.90306 5.52574 8.81466C5.59105 8.72626 5.6835 8.66166 5.78897 8.63074C6.33812 8.48941 6.8393 8.20335 7.24026 7.80238C7.64122 7.40141 7.92727 6.90022 8.06858 6.35107C8.09949 6.2456 8.16408 6.15315 8.25248 6.08785C8.34088 6.02255 8.44823 5.98798 8.55812 5.98943H21.4712C21.5854 5.98943 21.695 5.94406 21.7757 5.86329C21.8565 5.78253 21.9019 5.67299 21.9019 5.55877C21.9019 5.44455 21.8565 5.33501 21.7757 5.25424C21.695 5.17348 21.5854 5.1281 21.4712 5.1281H8.55812C8.25686 5.12548 7.96328 5.22314 7.72363 5.40572C7.48398 5.58829 7.31187 5.8454 7.23441 6.13655C7.1315 6.53644 6.9232 6.90141 6.63121 7.19339C6.33923 7.48537 5.97426 7.69367 5.57436 7.79657C5.28323 7.87407 5.02615 8.0462 4.84359 8.28585C4.66103 8.5255 4.56336 8.81906 4.56595 9.12032V50.406C4.56336 50.7072 4.66103 51.0008 4.84359 51.2404C5.02615 51.4801 5.28323 51.6522 5.57436 51.7297C5.97424 51.8326 6.3392 52.0409 6.63119 52.3329C6.92317 52.6248 7.13149 52.9898 7.23441 53.3896C7.31185 53.6808 7.48395 53.9379 7.72361 54.1205C7.96326 54.3031 8.25685 54.4008 8.55813 54.3982H49.1241C49.4253 54.4007 49.7189 54.303 49.9585 54.1205C50.1981 53.9379 50.3703 53.6808 50.4478 53.3897C50.5507 52.9898 50.759 52.6249 51.051 52.3329C51.343 52.0409 51.7079 51.8326 52.1078 51.7297C52.3989 51.6522 52.656 51.4801 52.8386 51.2404C53.0212 51.0008 53.1188 50.7072 53.1162 50.406V9.12031C53.1188 8.81906 53.0212 8.5255 52.8386 8.28585C52.656 8.0462 52.3989 7.87407 52.1078 7.79657ZM52.2549 50.406C52.2563 50.5159 52.2218 50.6232 52.1564 50.7116C52.0911 50.8 51.9987 50.8646 51.8932 50.8955C51.3441 51.0369 50.8429 51.3229 50.4419 51.7238C50.041 52.1248 49.7549 52.626 49.6136 53.1751C49.5827 53.2806 49.5181 53.373 49.4297 53.4384C49.3413 53.5037 49.234 53.5383 49.1241 53.5368H24.5734V46.3094H30.2508C30.365 46.3094 30.4745 46.2641 30.5553 46.1833C30.6361 46.1025 30.6814 45.993 30.6814 45.8788C30.6814 45.7645 30.6361 45.655 30.5553 45.5742C30.4745 45.4935 30.365 45.4481 30.2508 45.4481H24.5734V43.0052H30.2508C30.365 43.0052 30.4745 42.9598 30.5553 42.879C30.6361 42.7983 30.6814 42.6887 30.6814 42.5745C30.6814 42.4603 30.6361 42.3507 30.5553 42.27C30.4745 42.1892 30.365 42.1438 30.2508 42.1438H24.5734V34.2624H35.0234C36.5815 34.2607 38.0752 33.641 39.1769 32.5393C40.2786 31.4376 40.8983 29.9438 40.9001 28.3858V25.2101C40.9001 25.0959 40.8547 24.9864 40.774 24.9056C40.6932 24.8248 40.5837 24.7795 40.4694 24.7795C40.3552 24.7795 40.2457 24.8248 40.1649 24.9056C40.0841 24.9864 40.0388 25.0959 40.0388 25.2101V28.3858C40.0373 29.7155 39.5084 30.9903 38.5681 31.9305C37.6279 32.8707 36.3531 33.3996 35.0234 33.4011H24.5734V30.1519H34.9394C35.4299 30.1513 35.9002 29.9562 36.2471 29.6094C36.5939 29.2625 36.789 28.7923 36.7896 28.3017V25.2101C36.7896 25.0959 36.7442 24.9864 36.6634 24.9056C36.5827 24.8248 36.4731 24.7795 36.3589 24.7795C36.2447 24.7795 36.1351 24.8248 36.0544 24.9056C35.9736 24.9864 35.9282 25.0959 35.9282 25.2101V28.3017C35.9279 28.5639 35.8237 28.8152 35.6383 29.0006C35.4529 29.186 35.2016 29.2903 34.9394 29.2906H24.5734V6.4201C24.5736 6.30592 24.619 6.19646 24.6997 6.11572C24.7805 6.03498 24.8899 5.98957 25.0041 5.98944H49.1241C49.234 5.98801 49.3413 6.0226 49.4297 6.08791C49.5181 6.15323 49.5827 6.24568 49.6136 6.35116C49.7549 6.90029 50.041 7.40147 50.4419 7.80242C50.8429 8.20337 51.3441 8.48942 51.8932 8.63074C51.9987 8.66166 52.0911 8.72626 52.1564 8.81466C52.2218 8.90306 52.2563 9.01041 52.2549 9.12031V50.406Z" fill="#424852"/>
<path d="M49.6537 32.9685V26.0624C49.6534 25.7223 49.518 25.3961 49.2775 25.1556C49.037 24.9151 48.7108 24.7798 48.3706 24.7794H45.9176C45.5775 24.7798 45.2514 24.9151 45.0109 25.1556C44.7703 25.3962 44.635 25.7223 44.6347 26.0624V32.9685C44.6351 33.3086 44.7703 33.6347 45.0109 33.8752C45.2514 34.1158 45.5775 34.2511 45.9176 34.2514H48.3706C48.7108 34.2511 49.0369 34.1158 49.2775 33.8753C49.518 33.6347 49.6533 33.3086 49.6537 32.9685ZM45.496 32.9685V26.0624C45.4961 25.9506 45.5406 25.8435 45.6196 25.7644C45.6987 25.6853 45.8058 25.6409 45.9176 25.6407H48.3706C48.4825 25.6409 48.5897 25.6853 48.6687 25.7644C48.7478 25.8434 48.7923 25.9506 48.7924 26.0624V32.9685C48.7923 33.0803 48.7478 33.1874 48.6687 33.2665C48.5896 33.3455 48.4825 33.39 48.3706 33.3901H45.9176C45.8058 33.39 45.6987 33.3455 45.6196 33.2665C45.5406 33.1874 45.4961 33.0803 45.496 32.9685Z" fill="#424852"/>
<path d="M11.8592 49.1108C11.745 49.1108 11.6355 49.1562 11.5547 49.237C11.4739 49.3177 11.4286 49.4273 11.4286 49.5415C11.4286 49.6557 11.4739 49.7653 11.5547 49.846C11.6355 49.9268 11.745 49.9722 11.8592 49.9722H17.2801C17.3944 49.9722 17.5039 49.9268 17.5847 49.846C17.6654 49.7653 17.7108 49.6557 17.7108 49.5415C17.7108 49.4273 17.6654 49.3177 17.5847 49.237C17.5039 49.1562 17.3944 49.1108 17.2801 49.1108H11.8592Z" fill="#424852"/>
<path d="M17.2801 10.4153C17.3944 10.4153 17.5039 10.3699 17.5847 10.2891C17.6654 10.2084 17.7108 10.0988 17.7108 9.98462C17.7108 9.8704 17.6654 9.76086 17.5847 9.68009C17.5039 9.59933 17.3944 9.55396 17.2801 9.55396H11.8592C11.745 9.55396 11.6355 9.59933 11.5547 9.68009C11.4739 9.76086 11.4286 9.8704 11.4286 9.98462C11.4286 10.0988 11.4739 10.2084 11.5547 10.2891C11.6355 10.3699 11.745 10.4153 11.8592 10.4153H17.2801Z" fill="#424852"/>
</svg>
